<?xml version="1.0" encoding="UTF-8"?>
<svg xmlns="http://www.w3.org/2000/svg" viewBox="0 0 32 32" role="img" aria-label="favicon">
  <rect width="32" height="32" rx="7" fill="#1c1917"/>
  <path fill="#fafaf9" d="M9.5 25.5h13c.8 0 1.3-.7 1-1.4l-1.2-2.6H9.7l-1.2 2.6c-.3.7.2 1.4 1 1.4z"/>
      <path fill="#fafaf9" d="M10 20.8c0-3.2 1.2-5.6 3.4-7.2-.4-1.2-.2-2.6.8-3.5.8-.7 1.9-.9 2.9-.6.3-.7 1-1.2 1.9-1.2.7 0 1.3.3 1.7.8l1.1-.4c.5-.2 1.1.2 1.1.8v2.1c1.4 1.3 2.3 3.2 2.3 5.6 0 1.4-.3 2.6-.8 3.6H10.8c-.5-1-.8-2.2-.8-3.6z"/>
      <circle cx="16.8" cy="12.4" r="1.1" fill="#1c1917"/>
      <rect x="11.5" y="22.2" width="9" height="1.6" rx=".6" fill="#a8a29e"/>
</svg>
