<?xml version="1.0" encoding="UTF-8"?>
<svg xmlns="http://www.w3.org/2000/svg" viewBox="0 0 32 32" role="img" aria-label="favicon">
  <rect width="32" height="32" rx="7" fill="#0b1020"/>
  <path fill="#93c5fd" d="M7 8.5c0-1.1.9-2 2-2h5.2c.4 0 .8.2 1 .5L16 8.2l.8-1.2c.2-.3.6-.5 1-.5H23c1.1 0 2 .9 2 2V23c0 .8-.7 1.5-1.5 1.5H17.2c-.4 0-.8-.2-1-.5L16 23.2l-.2.3c-.2.3-.6.5-1 .5H8.5C7.7 24 7 23.3 7 22.5z"/>
      <path fill="#0b1020" d="M15.2 10.2v11.2h-5.5c-.3 0-.5-.2-.5-.5V10.2c0-.3.2-.5.5-.5h5.5z"/>
      <path fill="#0b1020" d="M16.8 10.2h5.5c.3 0 .5.2.5.5v10.7c0 .3-.2.5-.5.5h-5.5z"/>
      <path fill="#f5c542" d="M22.5 7.2l.55 1.7h1.8l-1.45 1.05.55 1.7-1.45-1.05-1.45 1.05.55-1.7-1.45-1.05h1.8z"/>
</svg>
